<?xml version="1.0" encoding="UTF-8"?>
<svg id="Layer_1" data-name="Layer 1" xmlns="http://www.w3.org/2000/svg" viewBox="0 0 100 80">
  <defs>
    <style>
      .cls-1 {
        fill: #273339;
      }

      .cls-2 {
        fill: #8cc34a;
      }
    </style>
  </defs>
  <polygon class="cls-2" points="80 46.67 80 53.96 58.33 44.33 58.33 35.67 80 26.04 80 33.33 65 40 80 46.67"/>
  <path class="cls-1" d="m51.67,45.92v-11.85l-31.67-14.08L0,40l20,20,31.67-14.08Zm-30.19-17.97l23.52,10.46v3.18l-23.52,10.46-12.05-12.05,12.05-12.05Z"/>
  <path class="cls-1" d="m53.33,0H20l46.67,80h33.33L53.33,0Zm-21.87,7h17.99l39.08,67h-17.99L31.46,7Z"/>
  <polygon class="cls-2" points="60 55.34 68.95 40 72.81 46.61 63.86 61.96 60 55.34"/>
  <polygon class="cls-2" points="51.05 40 60 24.66 56.14 18.05 47.19 33.38 51.05 40"/>
  <polygon class="cls-2" points="76.67 40 100 0 66.67 0 60 11.43 63.86 18.04 70.49 6.67 88.39 6.67 72.81 33.38 76.67 40"/>
  <polygon class="cls-2" points="60 68.57 53.33 80 20 80 43.33 40 47.19 46.61 31.61 73.33 49.5 73.33 56.14 61.96 60 68.57"/>
</svg>